<?xml version="1.0" standalone="no"?>
<!DOCTYPE svg PUBLIC "-//W3C//DTD SVG 20010904//EN"
 "http://www.w3.org/TR/2001/REC-SVG-20010904/DTD/svg10.dtd">
<svg version="1.0" xmlns="http://www.w3.org/2000/svg"
 width="906.000000pt" height="906.000000pt" viewBox="0 0 906.000000 906.000000"
 preserveAspectRatio="xMidYMid meet">
<metadata>
Created by potrace 1.11, written by Peter Selinger 2001-2013
</metadata>
<g transform="translate(0.000000,906.000000) scale(0.100000,-0.100000)"
fill="#000000" stroke="none">
<path d="M1208 8825 c-304 -52 -572 -189 -786 -403 -221 -221 -357 -488 -407
-797 -13 -83 -15 -459 -15 -3095 0 -2636 2 -3012 15 -3095 50 -308 187 -577
405 -795 218 -218 487 -355 795 -405 83 -13 482 -15 3315 -15 3513 0 3292 -4
3497 56 469 136 841 508 977 977 59 204 56 5 56 3277 0 2636 -2 3012 -15 3095
-100 622 -578 1100 -1200 1200 -84 13 -479 15 -3327 14 -2590 -1 -3248 -4
-3310 -14z m3015 -1415 c24 -17 197 -247 518 -690 672 -927 1209 -1666 1298
-1789 42 -57 89 -122 106 -145 31 -43 249 -344 1242 -1713 336 -463 616 -850
622 -861 17 -32 13 -104 -8 -138 -25 -42 -555 -424 -590 -425 -50 -2 -76 3
-104 20 -22 14 -922 1242 -1570 2143 l-92 128 -672 0 -673 0 -2 -1129 c-3
-1128 -3 -1130 -24 -1158 -11 -15 -36 -38 -54 -51 l-34 -23 -356 3 c-349 3
-356 3 -386 25 -68 49 -64 -28 -64 1212 l0 1121 -750 0 -750 0 0 -1118 c0
-1068 -1 -1119 -19 -1152 -10 -19 -33 -45 -51 -57 -33 -23 -37 -23 -377 -23
-235 0 -351 4 -366 11 -35 18 -68 52 -79 79 -6 16 -9 1054 -9 2833 0 2688 1
2808 18 2838 10 17 34 40 53 52 34 21 43 22 375 22 322 0 342 -1 374 -20 19
-11 43 -33 55 -48 l21 -28 3 -1235 2 -1234 748 2 747 3 5 1235 c5 1159 6 1238
23 1263 21 33 57 57 100 68 17 4 179 7 358 6 l326 -2 36 -25z"/>
<path d="M4300 5322 l0 -462 335 0 c184 0 335 2 335 5 0 3 -24 38 -54 78 -29
40 -174 239 -321 442 -147 204 -274 377 -281 385 -12 12 -14 -57 -14 -448z"/>
</g>
</svg>
